# xmcd CD database file
#
# Track frame offsets:
#	187
#	17184
#	32402
#
# Disc length: 654 seconds
#
# Revision: 0
# Processed by: cddbd v1.5.1PL0 Copyright (c) Steve Scherf et al.
# Submitted via: CDex 1.51
#
DISCID=18028c03
DTITLE=江利じゅん - 経験
DYEAR=1991
DGENRE=JPop
TTITLE0=経験
TTITLE1=さよならを教えて
TTITLE2=経験(カラオケ)
EXTD=YEAR: 1991
EXTT0=
EXTT1=
EXTT2=
PLAYORDER=
